<?xml version="1.0" encoding="utf-8"?>
<!-- Generator: Adobe Illustrator 26.0.0, SVG Export Plug-In . SVG Version: 6.00 Build 0)  -->
<svg version="1.1" id="Layer_1" xmlns="http://www.w3.org/2000/svg" xmlns:xlink="http://www.w3.org/1999/xlink" x="0px" y="0px"
	 viewBox="0 0 24 24.1" style="enable-background:new 0 0 24 24.1;" xml:space="preserve">
<style type="text/css">
	.st0{fill:#686868;}
</style>
<g>
	<path class="st0" d="M19.4,2.9H4.5c-2.2,0-4,1.8-4,4l0,0v10.3c0,2.2,1.8,4,4,4h0h14.9c2.2,0,4-1.8,4-4c0,0,0,0,0,0V6.9
		C23.4,4.7,21.6,2.9,19.4,2.9L19.4,2.9 M1.6,6.9c0-1.6,1.3-2.9,2.9-2.9c0,0,0,0,0,0h14.9c1.6,0,2.9,1.3,2.9,2.9v9.5l-5.3-5.3
		c-0.1-0.1-0.3-0.2-0.4-0.2c-0.2,0-0.3,0.1-0.4,0.2L10.2,17l-3.6-3.6c-0.2-0.2-0.6-0.2-0.8,0c0,0,0,0,0,0l-4.1,4.1
		c0-0.1,0-0.2,0-0.3V6.9z M19.4,20.1H4.5c-1,0-1.9-0.5-2.4-1.4l4.1-4.1l3.6,3.6c0.2,0.2,0.6,0.2,0.8,0c0,0,0,0,0,0l5.9-5.9l5.6,5.6
		C21.8,19.2,20.7,20.1,19.4,20.1"/>
	<path class="st0" d="M8.5,10.9c1.3,0,2.3-1,2.3-2.3s-1-2.3-2.3-2.3s-2.3,1-2.3,2.3S7.2,10.9,8.5,10.9L8.5,10.9 M8.5,7.5
		c0.6,0,1.1,0.5,1.1,1.1S9.1,9.8,8.5,9.8S7.3,9.3,7.3,8.6S7.9,7.5,8.5,7.5L8.5,7.5"/>
</g>
</svg>
