<?xml version="1.0" encoding="utf-8"?>
<!-- Generator: Adobe Illustrator 26.0.0, SVG Export Plug-In . SVG Version: 6.00 Build 0)  -->
<svg version="1.1" id="Layer_1" xmlns="http://www.w3.org/2000/svg" xmlns:xlink="http://www.w3.org/1999/xlink" x="0px" y="0px"
	 viewBox="0 0 24 24.1" style="enable-background:new 0 0 24 24.1;" xml:space="preserve">
<style type="text/css">
	.st0{fill:#3F3F3F;}
</style>
<g>
	<g>
		<path class="st0" d="M3.8,4.7C2.8,4.7,2,5.6,2,6.6v10.2c0,1,0.8,1.8,1.8,1.8h16.7c1,0,1.8-0.8,1.8-1.8V6.6c0-1-0.8-1.8-1.8-1.8
			H3.8z M3.8,5.5h16.7c0.6,0,1.1,0.5,1.1,1.1v10.2c0,0.6-0.5,1.1-1.1,1.1H3.8c-0.6,0-1.1-0.5-1.1-1.1V6.6C2.7,6,3.2,5.5,3.8,5.5z
			 M7.7,6.1c-1.4,0-2.5,1.1-2.5,2.5c0,1.4,1.1,2.5,2.5,2.5c1.4,0,2.5-1.1,2.5-2.5S9.1,6.1,7.7,6.1z M7.7,6.8c1,0,1.8,0.8,1.8,1.8
			s-0.8,1.8-1.8,1.8c-1,0-1.8-0.8-1.8-1.8S6.7,6.8,7.7,6.8z M16.9,11.6c-0.1,0-0.2,0-0.2,0.1l-4.5,4.1l-3.6-3.2
			c-0.1-0.1-0.3-0.1-0.5,0L5.4,15c-0.2,0.1-0.2,0.4,0,0.5c0.1,0.1,0.3,0.2,0.5,0l2.5-2.1l3.6,3.2c0.1,0.1,0.3,0.1,0.5,0l4.5-4.2
			l2.7,2c0.2,0.1,0.4,0.1,0.5-0.1s0.1-0.4-0.1-0.5c0,0,0,0,0,0l-2.9-2.2C17,11.7,17,11.7,16.9,11.6C16.9,11.6,16.9,11.6,16.9,11.6
			L16.9,11.6z"/>
	</g>
</g>
</svg>
