<?xml version="1.0" encoding="utf-8"?>
<!-- Generator: Adobe Illustrator 26.0.0, SVG Export Plug-In . SVG Version: 6.00 Build 0)  -->
<svg version="1.1" id="Layer_1" xmlns="http://www.w3.org/2000/svg" xmlns:xlink="http://www.w3.org/1999/xlink" x="0px" y="0px"
	 viewBox="0 0 24 24.1" style="enable-background:new 0 0 24 24.1;" xml:space="preserve">
<style type="text/css">
	.st0{fill:#D9D9D9;}
</style>
<g>
	<path class="st0" d="M18.8,3.1H5.2c-2,0-3.7,1.7-3.7,3.7l0,0v9.5c0,2,1.7,3.7,3.7,3.7h0h13.7c2,0,3.7-1.7,3.7-3.7c0,0,0,0,0,0V6.8
		C22.5,4.8,20.9,3.1,18.8,3.1L18.8,3.1 M2.5,6.8c0-1.5,1.2-2.6,2.6-2.6c0,0,0,0,0,0h13.7c1.5,0,2.6,1.2,2.6,2.6v8.7l-4.9-4.9
		c-0.1-0.1-0.2-0.2-0.4-0.2c-0.1,0-0.3,0.1-0.4,0.2l-5.4,5.4l-3.3-3.3c-0.2-0.2-0.5-0.2-0.7,0c0,0,0,0,0,0l-3.8,3.8
		c0-0.1,0-0.2,0-0.3V6.8z M18.8,18.9H5.2c-0.9,0-1.7-0.5-2.2-1.2l3.8-3.8l3.3,3.3c0.2,0.2,0.5,0.2,0.7,0c0,0,0,0,0,0l5.4-5.4
		l5.2,5.2C21.1,18.1,20,18.9,18.8,18.9"/>
	<path class="st0" d="M8.8,10.5c1.2,0,2.1-0.9,2.1-2.1S10,6.3,8.8,6.3S6.7,7.2,6.7,8.4S7.7,10.5,8.8,10.5L8.8,10.5 M8.8,7.3
		c0.6,0,1.1,0.5,1.1,1.1S9.4,9.4,8.8,9.4S7.8,9,7.8,8.4S8.3,7.3,8.8,7.3L8.8,7.3"/>
</g>
</svg>
