<svg xmlns="http://www.w3.org/2000/svg" viewBox="0 0 24 30" x="0px" y="0px" width="24" height="30"><title>noun_part1</title><g><path d="M18.24 4.32H5.76a3.36 3.36 0 0 0 -3.36 3.36v8.64a3.36 3.36 0 0 0 3.36 3.36h12.48a3.36 3.36 0 0 0 3.36 -3.36V7.68a3.36 3.36 0 0 0 -3.36 -3.36M3.36 7.68a2.4 2.4 0 0 1 2.4 -2.4h12.48a2.4 2.4 0 0 1 2.4 2.4v7.973l-4.459 -4.474A0.48 0.48 0 0 0 15.84 11.04a0.48 0.48 0 0 0 -0.341 0.139L10.56 16.123l-3.019 -3.024a0.48 0.48 0 0 0 -0.682 0l-3.475 3.475A2.4 2.4 0 0 1 3.36 16.32Zm14.88 11.04H5.76a2.4 2.4 0 0 1 -2.03 -1.133L7.2 14.117l3.019 3.024a0.48 0.48 0 0 0 0.682 0L15.84 12.202l4.714 4.723A2.4 2.4 0 0 1 18.24 18.72"/><path d="M9.12 11.04a1.92 1.92 0 1 0 -1.92 -1.92 1.92 1.92 0 0 0 1.92 1.92m0 -2.88a0.96 0.96 0 1 1 -0.96 0.96 0.96 0.96 0 0 1 0.96 -0.96"/></g></svg>